<svg width="65" height="64" viewBox="0 0 65 64" fill="none" xmlns="http://www.w3.org/2000/svg">
<g clip-path="url(#clip0_367_3740)">
<rect width="64" height="64" transform="translate(0.333374)" fill="white"/>
<rect x="0.333374" width="64" height="64" fill="white"/>
<path fill-rule="evenodd" clip-rule="evenodd" d="M16.5342 24.6328C16.5342 23.5282 17.4297 22.6328 18.5342 22.6328H23.8536C24.9582 22.6328 25.8536 23.5282 25.8536 24.6328V25.0705C25.8536 25.1942 25.8424 25.3153 25.8209 25.4328C27.0991 25.7777 28.3171 26.2692 29.4559 26.888C29.5512 26.6144 29.7076 26.3573 29.9253 26.138L30.2338 25.8273C31.0119 25.0434 32.2782 25.0387 33.0622 25.8169L36.8373 29.5644C37.6213 30.3425 37.6259 31.6089 36.8477 32.3928L36.5393 32.7035C36.3585 32.8857 36.1513 33.0258 35.9299 33.1237C36.5539 34.1756 37.0667 35.3011 37.4524 36.4841C37.6442 36.4229 37.8485 36.3899 38.0606 36.3899H38.4984C39.6029 36.3899 40.4984 37.2854 40.4984 38.3899V43.7093C40.4984 44.8139 39.6029 45.7093 38.4984 45.7093H38.0606C37.9749 45.7093 37.8904 45.7039 37.8076 45.6934C37.5397 46.8008 37.1626 47.8656 36.6883 48.8755C36.9582 48.973 37.2113 49.1304 37.4269 49.3476L37.7353 49.6583C38.5135 50.4422 38.5088 51.7085 37.7249 52.4867L33.9497 56.2342C33.1658 57.0124 31.8995 57.0077 31.1213 56.2238L30.8129 55.9131C30.7744 55.8743 30.7378 55.8343 30.7031 55.7933C29.4814 56.6009 28.1484 57.2537 26.732 57.7238C26.7381 57.7872 26.7412 57.8513 26.7412 57.9162V58.354C26.7412 59.4586 25.8457 60.354 24.7412 60.354H19.4218C18.3172 60.354 17.4218 59.4586 17.4218 58.354V58.1031C15.7207 57.69 14.1204 57.0188 12.6649 56.1335L12.5752 56.2238C11.7971 57.0077 10.5307 57.0124 9.74682 56.2342L5.97164 52.4867C5.18772 51.7085 5.18306 50.4422 5.96123 49.6583L6.26966 49.3476C6.2927 49.3244 6.31617 49.3019 6.34005 49.28C5.77249 48.1511 5.328 46.9497 5.02418 45.6934C4.94132 45.7039 4.85687 45.7093 4.77117 45.7093H4.33337C3.2288 45.7093 2.33337 44.8139 2.33337 43.7093V38.3899C2.33337 37.2854 3.2288 36.3899 4.33337 36.3899H4.77117C4.98322 36.3899 5.18757 36.4229 5.37935 36.4841C5.76403 35.304 6.27533 34.1812 6.8972 33.1316C6.66901 33.0333 6.45543 32.8906 6.26967 32.7035L5.96124 32.3928C5.18308 31.6089 5.18773 30.3425 5.97165 29.5644L9.74683 25.8169C10.5307 25.0387 11.7971 25.0434 12.5752 25.8273L12.8837 26.138C13.1041 26.3601 13.2618 26.6209 13.3567 26.8984C14.3761 26.3427 15.4593 25.8892 16.5924 25.5516C16.5544 25.3975 16.5342 25.2364 16.5342 25.0705V24.6328Z" fill="#90AEFF"/>
<circle cx="21.4158" cy="41.7153" r="4.88158" fill="white"/>
<path fill-rule="evenodd" clip-rule="evenodd" d="M49.5075 42.0281C49.704 41.3972 50.3747 41.0451 51.0056 41.2416L53.5186 42.0243C54.1494 42.2208 54.5015 42.8915 54.3051 43.5224C54.2735 43.6239 54.2296 43.7181 54.1756 43.804C54.7979 44.1968 55.3625 44.6595 55.8619 45.1782C55.9686 45.0168 56.1161 44.8791 56.2991 44.7822C56.883 44.4729 57.6071 44.6955 57.9164 45.2794L59.1485 47.6053C59.4578 48.1892 59.2352 48.9133 58.6513 49.2226C58.4932 49.3063 58.3248 49.3511 58.1572 49.3602C58.3178 50.0235 58.4046 50.7085 58.4112 51.4032C58.5559 51.3929 58.7049 51.4089 58.8518 51.4546C59.4826 51.6511 59.8348 52.3218 59.6383 52.9527L58.8555 55.4657C58.659 56.0965 57.9883 56.4487 57.3575 56.2522C57.2755 56.2266 57.1983 56.1931 57.1264 56.1527C56.8017 56.6978 56.4242 57.2008 56.003 57.6571C56.1609 57.7647 56.2952 57.9118 56.3896 58.0931C56.6946 58.6793 56.4667 59.4017 55.8805 59.7067L53.5456 60.9216C52.9595 61.2266 52.237 60.9987 51.9321 60.4125C51.9001 60.3512 51.8741 60.2883 51.8536 60.2247C51.0863 60.4484 50.2855 60.5722 49.4709 60.5859C49.4623 60.6569 49.4472 60.7281 49.4252 60.7988C49.2287 61.4297 48.558 61.7818 47.9271 61.5853L45.4141 60.8026C44.7833 60.6061 44.4311 59.9354 44.6276 59.3045C44.6293 59.299 44.6311 59.2936 44.6329 59.2881C43.823 58.8025 43.1066 58.2001 42.4991 57.5106C41.9233 57.7861 41.2277 57.5602 40.9262 56.991L39.6941 54.6651C39.3848 54.0812 39.6074 53.3571 40.1913 53.0479C40.2414 53.0213 40.2926 52.9987 40.3445 52.9798C40.2309 52.2985 40.1945 51.5989 40.2416 50.8936C40.1594 50.886 40.0768 50.8698 39.9949 50.8443C39.364 50.6478 39.0119 49.9771 39.2084 49.3462L39.9911 46.8332C40.1876 46.2023 40.8583 45.8502 41.4892 46.0467C41.636 46.0924 41.7677 46.1639 41.881 46.2545C42.2801 45.6877 42.7394 45.1741 43.2469 44.72C43.1105 44.6164 42.9942 44.4817 42.9098 44.3196C42.6049 43.7335 42.8328 43.011 43.4189 42.7061L45.7539 41.4911C46.34 41.1862 47.0624 41.4141 47.3674 42.0002C47.464 42.1859 47.5071 42.3852 47.5024 42.5806C48.1382 42.4505 48.7919 42.3879 49.4531 42.3981C49.4517 42.2758 49.4692 42.1512 49.5075 42.0281Z" fill="#90AEFF"/>
<circle cx="49.3166" cy="51.4921" r="2.63208" transform="rotate(17.3002 49.3166 51.4921)" fill="white"/>
<path fill-rule="evenodd" clip-rule="evenodd" d="M33.4704 4.17848C33.7365 3.57367 34.4425 3.29907 35.0473 3.56515L37.4565 4.62507C38.0613 4.89115 38.3359 5.59714 38.0698 6.20196C38.027 6.29923 37.9729 6.38796 37.9096 6.46727C38.4839 6.92742 38.9929 7.45065 39.4309 8.02209C39.5551 7.87373 39.7172 7.75347 39.9099 7.67768C40.5249 7.4359 41.2194 7.73839 41.4612 8.35332L42.4243 10.8028C42.6661 11.4178 42.3636 12.1123 41.7486 12.3541C41.5821 12.4195 41.4098 12.4451 41.2422 12.4353C41.3273 13.1124 41.3366 13.8029 41.2652 14.4939C41.4102 14.4999 41.5564 14.5325 41.6972 14.5945C42.302 14.8606 42.5766 15.5666 42.3105 16.1714L41.2506 18.5806C40.9845 19.1854 40.2785 19.46 39.6737 19.1939C39.5952 19.1594 39.5222 19.1174 39.4552 19.0692C39.0714 19.5743 38.6399 20.0318 38.1701 20.4379C38.315 20.5625 38.432 20.7238 38.5054 20.9146C38.7426 21.5313 38.435 22.2236 37.8183 22.4608L35.3618 23.4059C34.7451 23.6431 34.0528 23.3355 33.8156 22.7189C33.7908 22.6543 33.7719 22.589 33.7587 22.5234C32.9711 22.6595 32.1615 22.6927 31.3505 22.6148C31.334 22.6844 31.311 22.7535 31.2812 22.8213C31.0151 23.4261 30.3091 23.7007 29.7043 23.4346L27.295 22.3747C26.6902 22.1086 26.4156 21.4026 26.6817 20.7978C26.684 20.7925 26.6864 20.7873 26.6888 20.7821C25.9386 20.2086 25.2943 19.5296 24.768 18.7762C24.165 18.9853 23.4991 18.6828 23.2634 18.0834L22.3002 15.6338C22.0584 15.0189 22.3609 14.3244 22.9759 14.0826C23.0287 14.0618 23.082 14.0451 23.1357 14.0322C23.0994 13.3424 23.1417 12.6432 23.2676 11.9476C23.1869 11.9309 23.1067 11.9054 23.0281 11.8709C22.4233 11.6048 22.1487 10.8988 22.4148 10.294L23.4747 7.88476C23.7408 7.27995 24.4468 7.00535 25.0516 7.27143C25.1924 7.33335 25.3152 7.41911 25.4176 7.52187C25.8778 7.00344 26.3918 6.54467 26.9472 6.1505C26.8232 6.03222 26.7228 5.88532 26.6571 5.71477C26.4199 5.09808 26.7275 4.40583 27.3442 4.16858L29.8007 3.22349C30.4174 2.98624 31.1097 3.29384 31.3469 3.91053C31.4221 4.10583 31.4426 4.30872 31.4159 4.50233C32.0623 4.4445 32.7189 4.45566 33.3748 4.54005C33.3871 4.41836 33.4185 4.29649 33.4704 4.17848Z" fill="#90AEFF"/>
<circle cx="32.2181" cy="13.5613" r="2.63208" transform="rotate(23.7465 32.2181 13.5613)" fill="white"/>
</g>
<defs>
<clipPath id="clip0_367_3740">
<rect width="64" height="64" fill="white" transform="translate(0.333374)"/>
</clipPath>
</defs>
</svg>
