<svg width="65" height="64" viewBox="0 0 65 64" fill="none" xmlns="http://www.w3.org/2000/svg">
<g clip-path="url(#clip0_367_3701)">
<rect x="0.666687" width="64" height="64" fill="white"/>
<path d="M39.6667 11.7647H47.7957V48.4706H39.6667V11.7647Z" fill="#90AEFF"/>
<path d="M43.7312 55.0588C44.2393 55.0588 47.7957 48.4706 47.7957 48.4706H39.6667C39.6667 48.4706 43.2231 55.0588 43.7312 55.0588Z" fill="#DDE3FF"/>
<mask id="mask0_367_3701" style="mask-type:alpha" maskUnits="userSpaceOnUse" x="39" y="48" width="9" height="8">
<path d="M43.7312 55.0588C44.2393 55.0588 47.7957 48.4706 47.7957 48.4706H39.6667C39.6667 48.4706 43.2231 55.0588 43.7312 55.0588Z" fill="#6D72EB"/>
</mask>
<g mask="url(#mask0_367_3701)">
<path d="M41.699 53.1765H45.7635V55.0588H41.699V53.1765Z" fill="#5F70A2"/>
</g>
<path d="M39.6667 9C39.6667 8.44771 40.1144 8 40.6667 8H46.7957C47.348 8 47.7957 8.44772 47.7957 9V11.7647H39.6667V9Z" fill="#5F70A2"/>
<path d="M16.6667 8H23.6667C24.219 8 24.6667 8.44772 24.6667 9V54.0588C24.6667 54.6111 24.219 55.0588 23.6667 55.0588H16.6667V8Z" fill="#90AEFF"/>
<path d="M16.6667 15.0588H18.6667" stroke="#5F70A2" stroke-width="0.3"/>
<path d="M18.0584 13.9346V14.647H17.9178V14.0967L17.7488 14.1505V14.0396L18.0432 13.9346H18.0584Z" fill="#5F70A2"/>
<path d="M18.2019 20.1842V20.2941H17.7156V20.2003L17.9456 19.9537C17.9687 19.928 17.9869 19.9054 18.0003 19.8859C18.0136 19.866 18.0232 19.8483 18.0291 19.8326C18.0353 19.8167 18.0384 19.8016 18.0384 19.7872C18.0384 19.7657 18.0348 19.7474 18.0276 19.7321C18.0205 19.7164 18.0099 19.7044 17.9959 19.6959C17.9822 19.6875 17.9653 19.6832 17.9451 19.6832C17.9236 19.6832 17.9051 19.6884 17.8894 19.6989C17.8741 19.7093 17.8624 19.7238 17.8543 19.7423C17.8465 19.7609 17.8426 19.7819 17.8426 19.8053H17.7014C17.7014 19.763 17.7115 19.7242 17.7317 19.6891C17.7519 19.6536 17.7804 19.6254 17.8172 19.6046C17.854 19.5835 17.8976 19.5729 17.948 19.5729C17.9978 19.5729 18.0398 19.581 18.074 19.5973C18.1085 19.6132 18.1346 19.6364 18.1521 19.6666C18.17 19.6966 18.179 19.7324 18.179 19.774C18.179 19.7975 18.1752 19.8204 18.1678 19.8429C18.1603 19.865 18.1495 19.8872 18.1355 19.9093C18.1219 19.9311 18.1053 19.9532 18.0857 19.9757C18.0662 19.9982 18.0445 20.0214 18.0208 20.0455L17.8972 20.1842H18.2019Z" fill="#5F70A2"/>
<path d="M17.8596 25.5247H17.9348C17.9589 25.5247 17.9788 25.5206 17.9944 25.5125C18.01 25.504 18.0216 25.4923 18.0291 25.4773C18.0369 25.462 18.0408 25.4443 18.0408 25.4241C18.0408 25.4058 18.0372 25.3897 18.0301 25.3757C18.0232 25.3614 18.0126 25.3503 17.9983 25.3425C17.984 25.3344 17.9659 25.3303 17.9441 25.3303C17.9269 25.3303 17.9109 25.3337 17.8963 25.3406C17.8816 25.3474 17.8699 25.357 17.8611 25.3694C17.8523 25.3818 17.8479 25.3967 17.8479 25.4143H17.7068C17.7068 25.3752 17.7172 25.3412 17.7381 25.3123C17.7592 25.2833 17.7875 25.2607 17.823 25.2444C17.8585 25.2281 17.8976 25.22 17.9402 25.22C17.9884 25.22 18.0305 25.2278 18.0667 25.2434C18.1028 25.2587 18.131 25.2813 18.1512 25.3113C18.1713 25.3412 18.1814 25.3783 18.1814 25.4226C18.1814 25.4451 18.1762 25.4669 18.1658 25.488C18.1554 25.5089 18.1404 25.5278 18.1209 25.5447C18.1017 25.5613 18.0782 25.5746 18.0506 25.5847C18.0229 25.5945 17.9918 25.5994 17.9573 25.5994H17.8596V25.5247ZM17.8596 25.6316V25.5588H17.9573C17.996 25.5588 18.0301 25.5632 18.0594 25.572C18.0887 25.5808 18.1132 25.5935 18.1331 25.6101C18.1529 25.6264 18.1679 25.6458 18.178 25.6682C18.1881 25.6903 18.1931 25.7149 18.1931 25.7419C18.1931 25.7751 18.1868 25.8048 18.1741 25.8308C18.1614 25.8565 18.1435 25.8783 18.1204 25.8962C18.0976 25.9141 18.0709 25.9278 18.0403 25.9373C18.0097 25.9464 17.9763 25.9509 17.9402 25.9509C17.9103 25.9509 17.8808 25.9469 17.8518 25.9387C17.8232 25.9303 17.7971 25.9177 17.7737 25.9011C17.7506 25.8842 17.732 25.863 17.718 25.8376C17.7044 25.8119 17.6975 25.7815 17.6975 25.7463H17.8387C17.8387 25.7646 17.8432 25.7808 17.8523 25.7952C17.8614 25.8095 17.874 25.8207 17.8899 25.8289C17.9062 25.837 17.9243 25.8411 17.9441 25.8411C17.9666 25.8411 17.9858 25.837 18.0017 25.8289C18.018 25.8204 18.0304 25.8087 18.0388 25.7937C18.0476 25.7784 18.052 25.7607 18.052 25.7405C18.052 25.7144 18.0473 25.6936 18.0379 25.678C18.0284 25.662 18.0149 25.6503 17.9973 25.6428C17.9798 25.6353 17.9589 25.6316 17.9348 25.6316H17.8596Z" fill="#5F70A2"/>
<path d="M18.2137 31.3226V31.4329H17.7014L17.6946 31.3475L17.991 30.8773H18.1028L17.9817 31.0799L17.8343 31.3226H18.2137ZM18.1331 30.8773V31.5882H17.9925V30.8773H18.1331Z" fill="#5F70A2"/>
<path d="M17.8479 36.9116L17.7356 36.8847L17.7762 36.5244H18.1756V36.6381H17.8919L17.8743 36.7958C17.8837 36.7903 17.8981 36.7844 17.9173 36.7783C17.9365 36.7717 17.958 36.7685 17.9817 36.7685C18.0162 36.7685 18.0468 36.7739 18.0735 36.7846C18.1002 36.7953 18.1228 36.811 18.1414 36.8315C18.1603 36.852 18.1746 36.8771 18.1844 36.9067C18.1941 36.9363 18.199 36.9698 18.199 37.0073C18.199 37.0388 18.1941 37.0689 18.1844 37.0976C18.1746 37.1259 18.1598 37.1513 18.1399 37.1738C18.1201 37.1959 18.0952 37.2133 18.0652 37.226C18.0353 37.2387 17.9998 37.2451 17.9588 37.2451C17.9282 37.2451 17.8985 37.2405 17.8699 37.2314C17.8416 37.2223 17.816 37.2088 17.7932 37.1909C17.7708 37.173 17.7527 37.1513 17.739 37.1259C17.7257 37.1002 17.7187 37.0709 17.718 37.038H17.8577C17.8596 37.0582 17.8649 37.0756 17.8733 37.0903C17.8821 37.1046 17.8937 37.1157 17.908 37.1235C17.9223 37.1313 17.9391 37.1352 17.9583 37.1352C17.9762 37.1352 17.9915 37.1318 18.0042 37.1249C18.0169 37.1181 18.0271 37.1087 18.0349 37.0966C18.0428 37.0842 18.0485 37.0699 18.052 37.0536C18.0559 37.037 18.0579 37.0191 18.0579 36.9999C18.0579 36.9807 18.0556 36.9633 18.0511 36.9477C18.0465 36.9321 18.0395 36.9186 18.0301 36.9072C18.0206 36.8958 18.0086 36.887 17.9939 36.8808C17.9796 36.8746 17.9628 36.8715 17.9436 36.8715C17.9176 36.8715 17.8974 36.8756 17.8831 36.8837C17.8691 36.8919 17.8574 36.9011 17.8479 36.9116Z" fill="#5F70A2"/>
<path d="M18.0784 42.1641H18.0989V42.2764H18.0906C18.0535 42.2764 18.0205 42.2819 17.9915 42.293C17.9625 42.304 17.9379 42.3198 17.9178 42.3403C17.8979 42.3605 17.8826 42.3849 17.8719 42.4136C17.8614 42.4422 17.8562 42.4743 17.8562 42.5098V42.6279C17.8562 42.6533 17.8587 42.6758 17.8636 42.6953C17.8688 42.7145 17.8761 42.7306 17.8855 42.7437C17.8953 42.7563 17.9067 42.766 17.9197 42.7725C17.9327 42.7786 17.9474 42.7817 17.9637 42.7817C17.979 42.7817 17.9928 42.7785 18.0052 42.772C18.0179 42.7655 18.0286 42.7563 18.0374 42.7446C18.0465 42.7326 18.0533 42.7186 18.0579 42.7026C18.0628 42.6864 18.0652 42.6686 18.0652 42.6494C18.0652 42.6302 18.0628 42.6125 18.0579 42.5962C18.0533 42.5799 18.0465 42.5659 18.0374 42.5542C18.0283 42.5422 18.0172 42.5329 18.0042 42.5264C17.9912 42.5199 17.9765 42.5166 17.9602 42.5166C17.9381 42.5166 17.9186 42.5218 17.9016 42.5322C17.885 42.5423 17.872 42.5553 17.8626 42.5713C17.8531 42.5872 17.8481 42.604 17.8474 42.6216L17.805 42.5942C17.8059 42.5692 17.8111 42.5454 17.8206 42.5229C17.8304 42.5005 17.8437 42.4806 17.8606 42.4634C17.8779 42.4458 17.8985 42.4321 17.9226 42.4224C17.9467 42.4123 17.9739 42.4072 18.0042 42.4072C18.0374 42.4072 18.0665 42.4136 18.0916 42.4263C18.117 42.439 18.1381 42.4564 18.1551 42.4785C18.172 42.5007 18.1847 42.5262 18.1931 42.5552C18.2016 42.5841 18.2058 42.6151 18.2058 42.6479C18.2058 42.6825 18.2001 42.7145 18.1888 42.7441C18.1777 42.7738 18.1616 42.7996 18.1404 42.8218C18.1196 42.8439 18.0945 42.8612 18.0652 42.8735C18.0359 42.8859 18.003 42.8921 17.9666 42.8921C17.9288 42.8921 17.8945 42.8853 17.8636 42.8716C17.833 42.8576 17.8066 42.8381 17.7845 42.813C17.7623 42.7879 17.7452 42.7581 17.7332 42.7236C17.7215 42.6891 17.7156 42.6514 17.7156 42.6104V42.5557C17.7156 42.4984 17.7239 42.446 17.7405 42.3984C17.7574 42.3506 17.7817 42.3092 17.8133 42.2744C17.8448 42.2393 17.8829 42.2121 17.9275 42.1929C17.9721 42.1737 18.0224 42.1641 18.0784 42.1641Z" fill="#5F70A2"/>
<path d="M18.1985 47.8184V47.8941L17.9236 48.5294H17.7752L18.0501 47.9283H17.6961V47.8184H18.1985Z" fill="#5F70A2"/>
<path d="M18.6667 20.7059H16.6667" stroke="#5F70A2" stroke-width="0.3"/>
<path d="M16.6667 26.3529H18.6667" stroke="#5F70A2" stroke-width="0.3"/>
<path d="M16.6667 32H18.6667" stroke="#5F70A2" stroke-width="0.3"/>
<path d="M16.6667 37.647H18.6667" stroke="#5F70A2" stroke-width="0.3"/>
<path d="M16.6667 43.2941H18.6667" stroke="#5F70A2" stroke-width="0.3"/>
<path d="M16.6667 48.9412H18.6667" stroke="#5F70A2" stroke-width="0.3"/>
<path d="M16.6667 8H17.6667V55.0588H16.6667V8Z" fill="#5F70A2"/>
</g>
<defs>
<clipPath id="clip0_367_3701">
<rect width="64" height="64" fill="white" transform="translate(0.666687)"/>
</clipPath>
</defs>
</svg>
