<svg width="32" height="48" viewBox="0 0 32 48" fill="none" xmlns="http://www.w3.org/2000/svg">
<path d="M23 3.76471H31.129V40.4706H23V3.76471Z" fill="#90AEFF"/>
<path d="M27.0645 47.0588C27.5726 47.0588 31.129 40.4706 31.129 40.4706H23C23 40.4706 26.5564 47.0588 27.0645 47.0588Z" fill="#DDE3FF"/>
<mask id="mask0_70_396" style="mask-type:alpha" maskUnits="userSpaceOnUse" x="23" y="40" width="9" height="8">
<path d="M27.0645 47.0588C27.5726 47.0588 31.129 40.4706 31.129 40.4706H23C23 40.4706 26.5564 47.0588 27.0645 47.0588Z" fill="#6D72EB"/>
</mask>
<g mask="url(#mask0_70_396)">
<path d="M25.0323 45.1765H29.0968V47.0588H25.0323V45.1765Z" fill="#5F70A2"/>
</g>
<path d="M23 0.999999C23 0.447714 23.4477 0 24 0H30.129C30.6813 0 31.129 0.447715 31.129 1V3.76471H23V0.999999Z" fill="#5F70A2"/>
<path d="M0 0H7C7.55228 0 8 0.447715 8 1V46.0588C8 46.6111 7.55228 47.0588 7 47.0588H0V0Z" fill="#90AEFF"/>
<path d="M0 7.05882H2" stroke="#5F70A2" stroke-width="0.3"/>
<path d="M1.39169 5.93465V6.64706H1.25107V6.09676L1.08212 6.15047V6.03963L1.37656 5.93465H1.39169Z" fill="#5F70A2"/>
<path d="M1.53525 12.1842V12.2941H1.04892V12.2004L1.2789 11.9538C1.30201 11.9281 1.32024 11.9054 1.33359 11.8859C1.34693 11.8661 1.35654 11.8483 1.3624 11.8327C1.36858 11.8167 1.37167 11.8016 1.37167 11.7873C1.37167 11.7658 1.36809 11.7474 1.36093 11.7321C1.35377 11.7165 1.34319 11.7044 1.32919 11.696C1.31552 11.6875 1.29859 11.6833 1.27841 11.6833C1.25693 11.6833 1.23837 11.6885 1.22275 11.6989C1.20745 11.7093 1.19573 11.7238 1.18759 11.7424C1.17978 11.7609 1.17587 11.7819 1.17587 11.8053H1.03476C1.03476 11.763 1.04485 11.7243 1.06503 11.6891C1.08522 11.6537 1.1137 11.6255 1.15048 11.6047C1.18727 11.5835 1.23089 11.5729 1.28134 11.5729C1.33115 11.5729 1.37314 11.5811 1.40732 11.5973C1.44182 11.6133 1.46786 11.6364 1.48544 11.6667C1.50335 11.6966 1.5123 11.7324 1.5123 11.7741C1.5123 11.7975 1.50856 11.8205 1.50107 11.8429C1.49358 11.8651 1.48284 11.8872 1.46884 11.9093C1.45517 11.9312 1.43857 11.9533 1.41904 11.9758C1.39951 11.9982 1.37786 12.0215 1.3541 12.0456L1.23056 12.1842H1.53525Z" fill="#5F70A2"/>
<path d="M1.19296 17.5247H1.26816C1.29225 17.5247 1.3121 17.5206 1.32773 17.5125C1.34335 17.504 1.35491 17.4923 1.3624 17.4773C1.37021 17.462 1.37411 17.4443 1.37411 17.4241C1.37411 17.4059 1.37053 17.3897 1.36337 17.3757C1.35654 17.3614 1.34596 17.3504 1.33163 17.3425C1.31731 17.3344 1.29925 17.3303 1.27744 17.3303C1.26018 17.3303 1.24423 17.3338 1.22958 17.3406C1.21494 17.3474 1.20322 17.357 1.19443 17.3694C1.18564 17.3818 1.18124 17.3967 1.18124 17.4143H1.04013C1.04013 17.3753 1.05055 17.3412 1.07138 17.3123C1.09254 17.2833 1.12086 17.2607 1.15634 17.2444C1.19182 17.2281 1.23089 17.22 1.27353 17.22C1.32171 17.22 1.36386 17.2278 1.39999 17.2434C1.43613 17.2587 1.46428 17.2813 1.48447 17.3113C1.50465 17.3412 1.51474 17.3783 1.51474 17.4226C1.51474 17.4451 1.50953 17.4669 1.49911 17.488C1.4887 17.5089 1.47372 17.5278 1.45419 17.5447C1.43499 17.5613 1.41155 17.5746 1.38388 17.5847C1.35621 17.5945 1.32512 17.5994 1.29062 17.5994H1.19296V17.5247ZM1.19296 17.6316V17.5588H1.29062C1.32936 17.5588 1.36337 17.5632 1.39267 17.572C1.42197 17.5808 1.44654 17.5935 1.4664 17.6101C1.48626 17.6264 1.50123 17.6458 1.51132 17.6682C1.52141 17.6904 1.52646 17.7149 1.52646 17.742C1.52646 17.7752 1.52011 17.8048 1.50742 17.8308C1.49472 17.8565 1.47682 17.8783 1.4537 17.8963C1.43092 17.9142 1.40423 17.9278 1.37363 17.9373C1.34303 17.9464 1.30966 17.9509 1.27353 17.9509C1.24358 17.9509 1.21412 17.9469 1.18515 17.9387C1.1565 17.9303 1.13046 17.9177 1.10703 17.9011C1.08391 17.8842 1.06536 17.863 1.05136 17.8377C1.03769 17.8119 1.03085 17.7815 1.03085 17.7463H1.17197C1.17197 17.7646 1.17652 17.7809 1.18564 17.7952C1.19475 17.8095 1.20729 17.8207 1.22324 17.8289C1.23951 17.837 1.25758 17.8411 1.27744 17.8411C1.2999 17.8411 1.3191 17.837 1.33505 17.8289C1.35133 17.8204 1.3637 17.8087 1.37216 17.7937C1.38095 17.7784 1.38535 17.7607 1.38535 17.7405C1.38535 17.7144 1.38063 17.6936 1.37119 17.678C1.36175 17.662 1.34824 17.6503 1.33066 17.6428C1.31308 17.6353 1.29225 17.6316 1.26816 17.6316H1.19296Z" fill="#5F70A2"/>
<path d="M1.54697 23.3226V23.433H1.03476L1.02792 23.3475L1.32431 22.8773H1.43613L1.31503 23.0799L1.16757 23.3226H1.54697ZM1.4664 22.8773V23.5882H1.32578V22.8773H1.4664Z" fill="#5F70A2"/>
<path d="M1.18124 28.9116L1.06894 28.8847L1.10947 28.5244H1.50888V28.6381H1.22519L1.20761 28.7958C1.21705 28.7903 1.23137 28.7844 1.25058 28.7783C1.26979 28.7717 1.29127 28.7685 1.31503 28.7685C1.34954 28.7685 1.38014 28.7739 1.40683 28.7846C1.43352 28.7953 1.45615 28.811 1.4747 28.8315C1.49358 28.852 1.5079 28.8771 1.51767 28.9067C1.52744 28.9363 1.53232 28.9698 1.53232 29.0073C1.53232 29.0388 1.52744 29.0689 1.51767 29.0976C1.5079 29.1259 1.49309 29.1513 1.47324 29.1738C1.45338 29.1959 1.42848 29.2133 1.39853 29.226C1.36858 29.2387 1.3331 29.2451 1.29208 29.2451C1.26148 29.2451 1.23186 29.2405 1.20322 29.2314C1.1749 29.2223 1.14934 29.2088 1.12656 29.1909C1.1041 29.173 1.08603 29.1513 1.07236 29.1259C1.05901 29.1002 1.05201 29.0709 1.05136 29.038H1.19101C1.19296 29.0582 1.19817 29.0756 1.20663 29.0903C1.21542 29.1046 1.22698 29.1157 1.2413 29.1235C1.25563 29.1313 1.27239 29.1352 1.2916 29.1352C1.3095 29.1352 1.3248 29.1318 1.33749 29.1249C1.35019 29.1181 1.36044 29.1087 1.36826 29.0966C1.37607 29.0842 1.38176 29.0699 1.38535 29.0536C1.38925 29.037 1.3912 29.0191 1.3912 28.9999C1.3912 28.9807 1.38893 28.9633 1.38437 28.9477C1.37981 28.9321 1.37281 28.9186 1.36337 28.9072C1.35393 28.8958 1.34189 28.887 1.32724 28.8808C1.31292 28.8746 1.29615 28.8715 1.27695 28.8715C1.25091 28.8715 1.23072 28.8756 1.2164 28.8837C1.2024 28.8919 1.19068 28.9011 1.18124 28.9116Z" fill="#5F70A2"/>
<path d="M1.41171 34.1641H1.43222V34.2764H1.42392C1.38681 34.2764 1.35377 34.2819 1.3248 34.293C1.29583 34.3041 1.27125 34.3198 1.25107 34.3404C1.23121 34.3605 1.21591 34.385 1.20517 34.4136C1.19475 34.4422 1.18954 34.4743 1.18954 34.5098V34.628C1.18954 34.6533 1.19199 34.6758 1.19687 34.6953C1.20208 34.7145 1.2094 34.7307 1.21884 34.7437C1.22861 34.7564 1.24 34.766 1.25302 34.7725C1.26604 34.7787 1.28069 34.7818 1.29697 34.7818C1.31227 34.7818 1.3261 34.7785 1.33847 34.772C1.35117 34.7655 1.36191 34.7564 1.3707 34.7447C1.37981 34.7326 1.38665 34.7186 1.3912 34.7027C1.39609 34.6864 1.39853 34.6686 1.39853 34.6494C1.39853 34.6302 1.39609 34.6125 1.3912 34.5962C1.38665 34.5799 1.37981 34.5659 1.3707 34.5542C1.36158 34.5422 1.35051 34.5329 1.33749 34.5264C1.32447 34.5199 1.30982 34.5166 1.29355 34.5166C1.27141 34.5166 1.25188 34.5218 1.23495 34.5322C1.21835 34.5423 1.20533 34.5554 1.19589 34.5713C1.18645 34.5873 1.18141 34.604 1.18076 34.6216L1.13828 34.5943C1.13925 34.5692 1.14446 34.5454 1.1539 34.523C1.16367 34.5005 1.17701 34.4807 1.19394 34.4634C1.21119 34.4458 1.23186 34.4322 1.25595 34.4224C1.28004 34.4123 1.30722 34.4072 1.33749 34.4072C1.3707 34.4072 1.39983 34.4136 1.4249 34.4263C1.45029 34.439 1.47145 34.4564 1.48837 34.4785C1.5053 34.5007 1.518 34.5262 1.52646 34.5552C1.53492 34.5842 1.53915 34.6151 1.53915 34.648C1.53915 34.6825 1.53346 34.7145 1.52206 34.7442C1.511 34.7738 1.49488 34.7997 1.47372 34.8218C1.45289 34.8439 1.42783 34.8612 1.39853 34.8736C1.36923 34.8859 1.33635 34.8921 1.2999 34.8921C1.26214 34.8921 1.22779 34.8853 1.19687 34.8716C1.16627 34.8576 1.1399 34.8381 1.11777 34.813C1.09563 34.7879 1.07854 34.7582 1.0665 34.7237C1.05478 34.6892 1.04892 34.6514 1.04892 34.6104V34.5557C1.04892 34.4984 1.05722 34.446 1.07382 34.3985C1.09075 34.3506 1.115 34.3093 1.14658 34.2744C1.17815 34.2393 1.21624 34.2121 1.26083 34.1929C1.30543 34.1737 1.35572 34.1641 1.41171 34.1641Z" fill="#5F70A2"/>
<path d="M1.53183 39.8185V39.8942L1.25693 40.5294H1.10849L1.38339 39.9283H1.02939V39.8185H1.53183Z" fill="#5F70A2"/>
<path d="M2 12.7059H0" stroke="#5F70A2" stroke-width="0.3"/>
<path d="M0 18.3529H2" stroke="#5F70A2" stroke-width="0.3"/>
<path d="M0 24H2" stroke="#5F70A2" stroke-width="0.3"/>
<path d="M0 29.6471H2" stroke="#5F70A2" stroke-width="0.3"/>
<path d="M0 35.2941H2" stroke="#5F70A2" stroke-width="0.3"/>
<path d="M0 40.9412H2" stroke="#5F70A2" stroke-width="0.3"/>
<path d="M0 0H1V47.0588H0V0Z" fill="#5F70A2"/>
</svg>
