<svg width="16" height="17" viewBox="0 0 16 17" fill="none" xmlns="http://www.w3.org/2000/svg">
<path d="M15.854 0.645997C15.9232 0.715329 15.9705 0.803471 15.9901 0.899475C16.0097 0.995478 16.0006 1.09511 15.964 1.186L10.145 15.733C10.0937 15.8611 10.0081 15.9726 9.89752 16.0552C9.78697 16.1377 9.65577 16.1882 9.51838 16.201C9.38098 16.2139 9.24271 16.1885 9.11879 16.1278C8.99486 16.0671 8.89009 15.9734 8.81599 15.857L5.63799 10.862L0.642993 7.684C0.526311 7.60998 0.432344 7.50517 0.371463 7.38112C0.310581 7.25708 0.285151 7.11863 0.297978 6.98105C0.310805 6.84347 0.361391 6.7121 0.444154 6.60145C0.526917 6.4908 0.638639 6.40517 0.766993 6.354L15.314 0.536997C15.4049 0.500409 15.5045 0.49133 15.6005 0.510886C15.6965 0.530442 15.7847 0.577772 15.854 0.646997V0.645997ZM6.63599 10.57L9.39699 14.908L14.13 3.076L6.63599 10.57ZM13.423 2.369L1.59099 7.102L5.92999 9.862L13.424 2.369H13.423Z" fill="#1C1F29"/>
</svg>
