<svg width="64" height="64" viewBox="0 0 64 64" fill="none" xmlns="http://www.w3.org/2000/svg">
<g clip-path="url(#clip0_367_3734)">
<path d="M1.52588e-05 4C1.52588e-05 2.93913 0.421443 1.92172 1.17159 1.17157C1.92173 0.421427 2.93915 0 4.00002 0L24 0C25.0609 0 26.0783 0.421427 26.8284 1.17157C27.5786 1.92172 28 2.93913 28 4V60C28 61.0609 27.5786 62.0783 26.8284 62.8284C26.0783 63.5786 25.0609 64 24 64H4.00002C2.93915 64 1.92173 63.5786 1.17159 62.8284C0.421443 62.0783 1.52588e-05 61.0609 1.52588e-05 60V4ZM36 4C36 2.93913 36.4214 1.92172 37.1716 1.17157C37.9217 0.421427 38.9391 0 40 0L60 0C61.0609 0 62.0783 0.421427 62.8284 1.17157C63.5786 1.92172 64 2.93913 64 4V24C64 25.0609 63.5786 26.0783 62.8284 26.8284C62.0783 27.5786 61.0609 28 60 28H40C38.9391 28 37.9217 27.5786 37.1716 26.8284C36.4214 26.0783 36 25.0609 36 24V4ZM36 40C36 38.9391 36.4214 37.9217 37.1716 37.1716C37.9217 36.4214 38.9391 36 40 36H60C61.0609 36 62.0783 36.4214 62.8284 37.1716C63.5786 37.9217 64 38.9391 64 40V60C64 61.0609 63.5786 62.0783 62.8284 62.8284C62.0783 63.5786 61.0609 64 60 64H40C38.9391 64 37.9217 63.5786 37.1716 62.8284C36.4214 62.0783 36 61.0609 36 60V40Z" fill="#90AEFF"/>
</g>
<defs>
<clipPath id="clip0_367_3734">
<rect width="64" height="64" fill="white"/>
</clipPath>
</defs>
</svg>
