<svg width="16" height="16" viewBox="0 0 16 16" fill="none" xmlns="http://www.w3.org/2000/svg">
<path d="M7.99997 1.08105C6.12235 1.08105 5.88624 1.0897 5.14851 1.12257C4.41078 1.15716 3.9083 1.27305 3.46808 1.4443C3.00633 1.61798 2.58807 1.89042 2.24257 2.24257C1.89063 2.58825 1.61823 3.00645 1.4443 3.46808C1.27305 3.90743 1.1563 4.41078 1.12257 5.14592C1.0897 5.88538 1.08105 6.12062 1.08105 8.00084C1.08105 9.87933 1.0897 10.1146 1.12257 10.8523C1.15716 11.5892 1.27305 12.0916 1.4443 12.5319C1.6216 12.9868 1.8577 13.3725 2.24257 13.7574C2.62657 14.1422 3.0123 14.3792 3.46722 14.5556C3.9083 14.7269 4.40992 14.8436 5.14678 14.8774C5.88538 14.9102 6.12062 14.9189 7.99997 14.9189C9.87933 14.9189 10.1137 14.9102 10.8523 14.8774C11.5883 14.8428 12.0925 14.7269 12.5327 14.5556C12.9942 14.3819 13.4121 14.1094 13.7574 13.7574C14.1422 13.3725 14.3784 12.9868 14.5556 12.5319C14.726 12.0916 14.8428 11.5892 14.8774 10.8523C14.9102 10.1146 14.9189 9.87933 14.9189 7.99997C14.9189 6.12062 14.9102 5.88538 14.8774 5.14678C14.8428 4.41078 14.726 3.90743 14.5556 3.46808C14.3817 3.00644 14.1093 2.58823 13.7574 2.24257C13.412 1.89029 12.9937 1.61783 12.5319 1.4443C12.0908 1.27305 11.5874 1.1563 10.8514 1.12257C10.1128 1.0897 9.87846 1.08105 7.99824 1.08105H8.00084H7.99997ZM7.37987 2.32819H8.00084C9.84819 2.32819 10.067 2.33424 10.7961 2.36797C11.4707 2.39824 11.8374 2.51154 12.0813 2.60581C12.4039 2.73122 12.6348 2.8817 12.8769 3.12387C13.1191 3.36603 13.2687 3.59608 13.3941 3.91954C13.4893 4.16257 13.6017 4.52927 13.632 5.20387C13.6657 5.93295 13.6726 6.15176 13.6726 7.99824C13.6726 9.84473 13.6657 10.0644 13.632 10.7935C13.6017 11.4681 13.4884 11.8339 13.3941 12.0778C13.2832 12.3782 13.1062 12.6499 12.8761 12.8726C12.6339 13.1148 12.4039 13.2644 12.0804 13.3898C11.8382 13.4849 11.4715 13.5974 10.7961 13.6285C10.067 13.6614 9.84819 13.6692 8.00084 13.6692C6.15349 13.6692 5.93381 13.6614 5.20473 13.6285C4.53014 13.5974 4.1643 13.4849 3.92041 13.3898C3.61986 13.279 3.34797 13.1023 3.12473 12.8726C2.89446 12.6495 2.71714 12.3776 2.60581 12.0769C2.51154 11.8339 2.39824 11.4672 2.36797 10.7926C2.33511 10.0635 2.32819 9.84473 2.32819 7.99651C2.32819 6.14916 2.33511 5.93122 2.36797 5.20214C2.39911 4.52754 2.51154 4.16084 2.60668 3.91695C2.73208 3.59435 2.88257 3.36343 3.12473 3.12127C3.36689 2.87911 3.59695 2.72949 3.92041 2.60408C4.1643 2.50895 4.53014 2.39651 5.20473 2.36538C5.843 2.33597 6.09035 2.32733 7.37987 2.32646V2.32819V2.32819ZM11.6938 3.47673C11.5848 3.47673 11.4768 3.49821 11.3761 3.53993C11.2753 3.58166 11.1838 3.64281 11.1067 3.71991C11.0296 3.79701 10.9685 3.88854 10.9267 3.98927C10.885 4.09 10.8635 4.19797 10.8635 4.307C10.8635 4.41603 10.885 4.524 10.9267 4.62473C10.9685 4.72546 11.0296 4.81699 11.1067 4.89409C11.1838 4.97119 11.2753 5.03235 11.3761 5.07407C11.4768 5.1158 11.5848 5.13727 11.6938 5.13727C11.914 5.13727 12.1252 5.0498 12.2809 4.89409C12.4366 4.73838 12.5241 4.5272 12.5241 4.307C12.5241 4.0868 12.4366 3.87562 12.2809 3.71991C12.1252 3.56421 11.914 3.47673 11.6938 3.47673V3.47673ZM8.00084 4.44711C7.52955 4.43976 7.0615 4.52623 6.62395 4.7015C6.18641 4.87677 5.78809 5.13733 5.45221 5.46802C5.11633 5.7987 4.84959 6.1929 4.66751 6.62766C4.48544 7.06242 4.39167 7.52906 4.39167 8.00041C4.39167 8.47175 4.48544 8.93839 4.66751 9.37315C4.84959 9.80792 5.11633 10.2021 5.45221 10.5328C5.78809 10.8635 6.18641 11.124 6.62395 11.2993C7.0615 11.4746 7.52955 11.5611 8.00084 11.5537C8.93363 11.5392 9.82329 11.1584 10.4778 10.4936C11.1323 9.82881 11.4991 8.93331 11.4991 8.00041C11.4991 7.0675 11.1323 6.17201 10.4778 5.50722C9.82329 4.84243 8.93363 4.46166 8.00084 4.44711V4.44711ZM8.00084 5.69338C8.61259 5.69338 9.19928 5.93639 9.63185 6.36897C10.0644 6.80154 10.3074 7.38823 10.3074 7.99997C10.3074 8.61172 10.0644 9.19841 9.63185 9.63098C9.19928 10.0636 8.61259 10.3066 8.00084 10.3066C7.38909 10.3066 6.8024 10.0636 6.36983 9.63098C5.93726 9.19841 5.69424 8.61172 5.69424 7.99997C5.69424 7.38823 5.93726 6.80154 6.36983 6.36897C6.8024 5.93639 7.38909 5.69338 8.00084 5.69338V5.69338Z" fill="#32384F"/>
</svg>
