<svg width="16" height="16" viewBox="0 0 16 16" fill="none" xmlns="http://www.w3.org/2000/svg">
<path d="M1.08105 2.07219C1.08105 1.52473 1.53597 1.08105 2.09727 1.08105H13.9027C14.464 1.08105 14.9189 1.52473 14.9189 2.07219V13.9278C14.9189 14.4752 14.464 14.9189 13.9027 14.9189H2.09727C1.53597 14.9189 1.08105 14.4752 1.08105 13.9278V2.07219ZM5.35608 12.6651V6.41641H3.27954V12.6651H5.35608ZM4.31824 5.56278C5.04214 5.56278 5.49273 5.08365 5.49273 4.48343C5.47976 3.87024 5.043 3.40408 4.33208 3.40408C3.62116 3.40408 3.15673 3.87111 3.15673 4.48343C3.15673 5.08365 3.60733 5.56278 4.30441 5.56278H4.31824V5.56278ZM8.563 12.6651V9.17533C8.563 8.98851 8.57684 8.8017 8.63219 8.66851C8.78181 8.29576 9.12343 7.90916 9.6977 7.90916C10.4493 7.90916 10.7494 8.4817 10.7494 9.32235V12.6651H12.8259V9.08105C12.8259 7.16105 11.8019 6.26851 10.4354 6.26851C9.3336 6.26851 8.83976 6.87392 8.563 7.3003V7.32192H8.54916C8.55376 7.3147 8.55837 7.30749 8.563 7.3003V6.41641H6.48733C6.51327 7.00278 6.48733 12.6651 6.48733 12.6651H8.563Z" fill="#32384F"/>
</svg>
