<svg width="16" height="16" viewBox="0 0 16 16" fill="none" xmlns="http://www.w3.org/2000/svg">
<path d="M12.8973 3.09277C12.26 2.45249 11.5011 1.94487 10.6648 1.5995C9.82845 1.25413 8.93145 1.0779 8.02603 1.0811C4.2321 1.0811 1.14013 4.15828 1.13666 7.936C1.13666 9.14594 1.45463 10.323 2.05495 11.3652L1.08105 14.9189L4.73338 13.9658C5.74377 14.5132 6.87572 14.8001 8.02603 14.8004H8.02951C11.8243 14.8004 14.9154 11.7232 14.9189 7.94205C14.9198 7.0409 14.7415 6.14849 14.3944 5.31622C14.0473 4.48396 13.5382 3.72829 12.8964 3.09277H12.8973ZM8.02603 13.6398C7.00001 13.6401 5.99284 13.3652 5.11043 12.8441L4.90192 12.7195L2.7352 13.2852L3.3138 11.181L3.17828 10.9639C2.60472 10.0561 2.30138 9.00499 2.30342 7.93254C2.30342 4.79655 4.87239 2.23828 8.02951 2.23828C8.78164 2.23694 9.5266 2.38382 10.2214 2.67045C10.9163 2.95708 11.5473 3.37779 12.078 3.90833C12.6106 4.43681 13.0328 5.06502 13.3203 5.75674C13.6078 6.44846 13.7548 7.19 13.753 7.93859C13.7495 11.0858 11.1806 13.6398 8.02603 13.6398V13.6398ZM11.1667 9.37253C10.9955 9.28691 10.1502 8.87264 9.9912 8.81383C9.83308 8.75761 9.71754 8.72821 9.6046 8.89945C9.48905 9.06983 9.15892 9.45815 9.05988 9.56972C8.96084 9.68475 8.85832 9.69772 8.6863 9.61296C8.51515 9.52648 7.96001 9.34659 7.30322 8.76107C6.79064 8.30702 6.44747 7.74486 6.34496 7.57448C6.24592 7.40324 6.3354 7.31156 6.42141 7.22594C6.49699 7.14984 6.59256 7.02529 6.67857 6.9267C6.76544 6.82811 6.79411 6.75546 6.85058 6.6413C6.90705 6.5254 6.88012 6.42681 6.83755 6.34119C6.79411 6.25557 6.45095 5.4106 6.30586 5.06984C6.16686 4.73341 6.02525 4.78011 5.91926 4.77579C5.82022 4.76973 5.70467 4.76973 5.58912 4.76973C5.50187 4.77189 5.416 4.79198 5.33691 4.82875C5.25783 4.86551 5.18723 4.91814 5.12954 4.98336C4.97143 5.1546 4.52922 5.56887 4.52922 6.41384C4.52922 7.25881 5.14605 8.07091 5.23293 8.18594C5.31807 8.30097 6.444 10.0298 8.17199 10.7736C8.58031 10.9509 8.90176 11.0556 9.15284 11.1351C9.5655 11.2666 9.93821 11.2467 10.2353 11.2043C10.5655 11.1541 11.2527 10.7892 11.3977 10.3887C11.5402 9.98745 11.5402 9.64496 11.4968 9.57318C11.4542 9.50053 11.3387 9.45815 11.1667 9.37253V9.37253Z" fill="#32384F"/>
</svg>
