<svg width="60" height="64" viewBox="0 0 60 64" fill="none" xmlns="http://www.w3.org/2000/svg">
<path fill-rule="evenodd" clip-rule="evenodd" d="M14.2009 24.6328C14.2009 23.5282 15.0963 22.6328 16.2009 22.6328H21.5202C22.6248 22.6328 23.5202 23.5282 23.5202 24.6328V25.0706C23.5202 25.1942 23.509 25.3153 23.4875 25.4328C24.7657 25.7777 25.9837 26.2692 27.1225 26.888C27.2178 26.6144 27.3742 26.3573 27.5919 26.138L27.9004 25.8273C28.6785 25.0434 29.9449 25.0387 30.7288 25.8169L34.504 29.5644C35.2879 30.3425 35.2925 31.6089 34.5144 32.3928L34.2059 32.7035C34.0251 32.8857 33.8179 33.0258 33.5965 33.1237C34.2205 34.1756 34.7334 35.3011 35.119 36.4841C35.3108 36.4229 35.5151 36.3899 35.7272 36.3899H36.165C37.2696 36.3899 38.165 37.2854 38.165 38.3899V43.7093C38.165 44.8139 37.2696 45.7093 36.165 45.7093H35.7272C35.6415 45.7093 35.557 45.7039 35.4742 45.6934C35.2064 46.8008 34.8293 47.8656 34.3549 48.8756C34.6248 48.973 34.8779 49.1304 35.0935 49.3476L35.402 49.6583C36.1801 50.4422 36.1755 51.7086 35.3915 52.4867L31.6164 56.2342C30.8325 57.0124 29.5661 57.0077 28.788 56.2238L28.4795 55.9131C28.441 55.8743 28.4044 55.8343 28.3698 55.7933C27.148 56.6009 25.815 57.2537 24.3987 57.7239C24.4047 57.7872 24.4078 57.8513 24.4078 57.9162V58.354C24.4078 59.4586 23.5124 60.354 22.4078 60.354H17.0884C15.9839 60.354 15.0884 59.4586 15.0884 58.354V58.1031C13.3873 57.69 11.7871 57.0188 10.3315 56.1335L10.2419 56.2238C9.46368 57.0077 8.19736 57.0124 7.41344 56.2342L3.63827 52.4867C2.85435 51.7086 2.84969 50.4422 3.62786 49.6583L3.93629 49.3476C3.95933 49.3244 3.9828 49.3019 4.00667 49.28C3.43912 48.1511 2.99463 46.9498 2.69081 45.6934C2.60794 45.7039 2.5235 45.7093 2.4378 45.7093H2C0.895431 45.7093 0 44.8139 0 43.7093V38.3899C0 37.2854 0.89543 36.3899 2 36.3899H2.4378C2.64985 36.3899 2.85419 36.4229 3.04597 36.4841C3.43065 35.304 3.94195 34.1812 4.56383 33.1316C4.33564 33.0333 4.12206 32.8906 3.9363 32.7035L3.62787 32.3928C2.8497 31.6089 2.85436 30.3425 3.63828 29.5644L7.41346 25.8169C8.19737 25.0387 9.46369 25.0434 10.2419 25.8273L10.5503 26.138C10.7708 26.3601 10.9284 26.6209 11.0233 26.8984C12.0428 26.3427 13.1259 25.8892 14.2591 25.5516C14.221 25.3975 14.2009 25.2364 14.2009 25.0706V24.6328Z" fill="#90AEFF"/>
<circle cx="19.0824" cy="41.7153" r="4.88158" fill="white"/>
<path fill-rule="evenodd" clip-rule="evenodd" d="M47.1741 42.0281C47.3706 41.3973 48.0413 41.0451 48.6721 41.2416L51.1851 42.0243C51.816 42.2208 52.1681 42.8915 51.9716 43.5224C51.94 43.6239 51.8962 43.7181 51.8422 43.804C52.4645 44.1968 53.029 44.6595 53.5285 45.1782C53.6352 45.0168 53.7827 44.8791 53.9657 44.7822C54.5496 44.4729 55.2737 44.6955 55.583 45.2794L56.815 47.6053C57.1243 48.1892 56.9017 48.9133 56.3178 49.2226C56.1597 49.3063 55.9914 49.3511 55.8238 49.3602C55.9844 50.0235 56.0712 50.7085 56.0778 51.4032C56.2225 51.3929 56.3715 51.4089 56.5184 51.4546C57.1492 51.6511 57.5013 52.3218 57.3048 52.9527L56.5221 55.4657C56.3256 56.0965 55.6549 56.4487 55.0241 56.2522C54.9421 56.2266 54.8649 56.1931 54.7929 56.1527C54.4683 56.6978 54.0908 57.2008 53.6696 57.6571C53.8275 57.7647 53.9618 57.9118 54.0562 58.0931C54.3612 58.6793 54.1333 59.4017 53.5471 59.7067L51.2122 60.9216C50.626 61.2266 49.9036 60.9987 49.5986 60.4125C49.5667 60.3512 49.5406 60.2884 49.5202 60.2247C48.7528 60.4484 47.9521 60.5722 47.1375 60.5859C47.1289 60.6569 47.1138 60.7281 47.0918 60.7988C46.8953 61.4297 46.2246 61.7818 45.5937 61.5853L43.0807 60.8026C42.4498 60.6061 42.0977 59.9354 42.2942 59.3045C42.2959 59.299 42.2977 59.2936 42.2995 59.2881C41.4896 58.8025 40.7732 58.2001 40.1657 57.5106C39.5899 57.7861 38.8943 57.5602 38.5927 56.991L37.3607 54.6651C37.0514 54.0812 37.274 53.3572 37.8579 53.0479C37.908 53.0213 37.9592 52.9987 38.011 52.9798C37.8975 52.2985 37.861 51.5989 37.9081 50.8936C37.826 50.886 37.7434 50.8698 37.6615 50.8443C37.0306 50.6478 36.6785 49.9771 36.875 49.3462L37.6577 46.8332C37.8542 46.2023 38.5249 45.8502 39.1558 46.0467C39.3026 46.0924 39.4343 46.1639 39.5476 46.2545C39.9466 45.6877 40.406 45.1741 40.9135 44.72C40.777 44.6164 40.6608 44.4817 40.5764 44.3196C40.2714 43.7335 40.4994 43.0111 41.0855 42.7061L43.4204 41.4912C44.0066 41.1862 44.729 41.4141 45.034 42.0002C45.1306 42.1859 45.1737 42.3852 45.169 42.5806C45.8048 42.4505 46.4585 42.3879 47.1197 42.3981C47.1183 42.2758 47.1357 42.1512 47.1741 42.0281Z" fill="#90AEFF"/>
<circle cx="46.9831" cy="51.4921" r="2.63208" transform="rotate(17.3002 46.9831 51.4921)" fill="white"/>
<path fill-rule="evenodd" clip-rule="evenodd" d="M31.137 4.1785C31.4031 3.57369 32.1091 3.29909 32.7139 3.56517L35.1232 4.62509C35.728 4.89117 36.0026 5.59716 35.7365 6.20197C35.6937 6.29924 35.6395 6.38797 35.5762 6.46729C36.1505 6.92744 36.6595 7.45067 37.0976 8.0221C37.2218 7.87375 37.3838 7.75348 37.5766 7.6777C38.1915 7.43591 38.886 7.73841 39.1278 8.35334L40.0909 10.8029C40.3327 11.4178 40.0302 12.1123 39.4153 12.3541C39.2488 12.4196 39.0764 12.4451 38.9088 12.4354C38.9939 13.1125 39.0033 13.8029 38.9319 14.4939C39.0768 14.4999 39.2231 14.5326 39.3638 14.5945C39.9687 14.8606 40.2433 15.5666 39.9772 16.1714L38.9173 18.5806C38.6512 19.1854 37.9452 19.46 37.3404 19.1939C37.2618 19.1594 37.1888 19.1174 37.1219 19.0692C36.7381 19.5743 36.3065 20.0318 35.8367 20.4379C35.9816 20.5625 36.0986 20.7238 36.172 20.9146C36.4093 21.5313 36.1017 22.2236 35.485 22.4608L33.0284 23.4059C32.4117 23.6432 31.7195 23.3356 31.4822 22.7189C31.4574 22.6543 31.4385 22.589 31.4254 22.5234C30.6377 22.6595 29.8281 22.6927 29.0172 22.6149C29.0006 22.6844 28.9776 22.7535 28.9478 22.8213C28.6817 23.4261 27.9757 23.7007 27.3709 23.4346L24.9617 22.3747C24.3569 22.1086 24.0823 21.4026 24.3483 20.7978C24.3507 20.7926 24.353 20.7873 24.3554 20.7821C23.6052 20.2086 22.9609 19.5296 22.4346 18.7762C21.8316 18.9854 21.1657 18.6828 20.93 18.0834L19.9669 15.6338C19.7251 15.0189 20.0276 14.3244 20.6425 14.0826C20.6953 14.0619 20.7487 14.0451 20.8023 14.0322C20.766 13.3424 20.8083 12.6432 20.9343 11.9477C20.8535 11.9309 20.7733 11.9054 20.6948 11.8709C20.0899 11.6048 19.8154 10.8988 20.0814 10.294L21.1413 7.88478C21.4074 7.27996 22.1134 7.00537 22.7182 7.27145C22.859 7.33337 22.9819 7.41913 23.0842 7.52189C23.5444 7.00346 24.0585 6.54469 24.6138 6.15052C24.4898 6.03224 24.3894 5.88533 24.3238 5.71479C24.0865 5.0981 24.3941 4.40585 25.0108 4.16859L27.4674 3.22351C28.0841 2.98626 28.7763 3.29385 29.0136 3.91055C29.0887 4.10585 29.1092 4.30874 29.0825 4.50235C29.729 4.44452 30.3856 4.45568 31.0415 4.54007C31.0538 4.41837 31.0851 4.29651 31.137 4.1785Z" fill="#90AEFF"/>
<circle cx="29.8848" cy="13.5612" r="2.63208" transform="rotate(23.7465 29.8848 13.5612)" fill="white"/>
</svg>
